# xmcd
#
# Track frame offsets:
#	150
#	15282
#	31810
#	44422
#	55852
#	67905
#	82525
#	90267
#	104930
#	114837
#	127200
#
# Disc length: 1949 seconds
#
# Revision: 0
# Processed by: cddbd v1.5.1PL0 Copyright (c) Steve Scherf et al.
# Submitted via: dBpowerAMP V4.0
#
DISCID=7c079b0b
DTITLE=Freddy Koella - Minimal
DYEAR=2005
DGENRE=Acoustic
TTITLE0=Camel
TTITLE1=Up And Down
TTITLE2=Berceuse En Sol
TTITLE3=Pico Blvd
TTITLE4=Elastic
TTITLE5=Minimal
TTITLE6=I Don't Want To
TTITLE7=Saint Ann Street Blues
TTITLE8=Dictafon
TTITLE9=Blues In A Room
TTITLE10=Time
EXTD=
EXTT0=
EXTT1=
EXTT2=
EXTT3=
EXTT4=
EXTT5=
EXTT6=
EXTT7=
EXTT8=
EXTT9=
EXTT10=
PLAYORDER=
